Coordinates
version=1
nRows=9
nColumns=26
inDegrees=yes

Units are S.I. units (second, meters, Newtons, ...)
Angles are in degrees.

endheader
time	pelvis_tilt	pelvis_list	pelvis_rotation	pelvis_tx	pelvis_ty	pelvis_tz	hip_flexion_r	hip_adduction_r	hip_rotation_r	knee_angle_r	knee_angle_r_beta	ankle_angle_r	subtalar_angle_r	mtp_angle_r	hip_flexion_l	hip_adduction_l	hip_rotation_l	knee_angle_l	knee_angle_l_beta	ankle_angle_l	subtalar_angle_l	mtp_angle_l	lumbar_extension	lumbar_bending	lumbar_rotation
      0.26666667	      7.32238691	      0.23371347	     -3.52959917	      0.27343700	      1.01963114	      0.15796792	      8.71826184	     -6.38172103	     -3.77572407	     59.62734087	     59.62734087	      0.70293553	      0.00000000	      0.00000000	     -0.11061965	      0.99576302	    -12.67516837	     11.33420088	     11.33420088	      3.74595315	      0.00000000	      0.00000000	    -19.27668736	     -2.87023948	      2.05660121
      0.27500000	      7.30737765	      0.18504994	     -3.11945783	      0.28148478	      1.02048498	      0.15732945	      9.49194099	     -6.16565409	     -4.11428337	     58.73702569	     58.73702569	      0.77521186	      0.00000000	      0.00000000	     -0.86755832	      1.06349299	    -12.20072050	     10.80582837	     10.80582837	      3.86008451	      0.00000000	      0.00000000	    -19.33601393	     -2.72012759	      1.84552838
      0.28333333	      7.20037565	      0.16484306	     -2.78856482	      0.28922882	      1.02102402	      0.15671544	     10.43678651	     -5.97403177	     -4.37464724	     57.80889076	     57.80889076	      1.27171506	      0.00000000	      0.00000000	     -1.35385079	      1.09968778	    -11.81569059	     10.57680973	     10.57680973	      4.07979365	      0.00000000	      0.00000000	    -19.32777161	     -2.60472333	      1.67503308
      0.29166667	      7.04014865	      0.15996255	     -2.48130434	      0.29691798	      1.02129095	      0.15607635	     11.42775317	     -5.78705648	     -4.56907919	     56.79086539	     56.79086539	      1.88072341	      0.00000000	      0.00000000	     -1.78153238	      1.15601918	    -11.44478796	     10.34429480	     10.34429480	      4.39165080	      0.00000000	      0.00000000	    -19.25747237	     -2.50085275	      1.55108038
      0.30000000	      6.92554386	      0.13668438	     -2.09767552	      0.30440014	      1.02163008	      0.15545439	     12.31095338	     -5.55497482	     -4.74345181	     55.58813509	     55.58813509	      2.33367553	      0.00000000	      0.00000000	     -2.24891726	      1.19642959	    -11.06086766	     10.06884583	     10.06884583	      4.79110440	      0.00000000	      0.00000000	    -19.27711405	     -2.36980737	      1.36737647
      0.30833333	      6.89914426	      0.07588647	     -1.84461979	      0.31248913	      1.02202118	      0.15476664	     12.97157399	     -5.28607389	     -4.84802926	     54.09602165	     54.09602165	      2.56755481	      0.00000000	      0.00000000	     -3.00845868	      1.23843411	    -10.83639665	      9.52672873	      9.52672873	      4.85520199	      0.00000000	      0.00000000	    -19.32563591	     -2.19346094	      1.31028665
      0.31666667	      6.87172042	     -0.01820205	     -1.57096347	      0.32038640	      1.02230535	      0.15430135	     13.58113814	     -4.94225579	     -4.91430537	     52.46426954	     52.46426954	      2.76788289	      0.00000000	      0.00000000	     -3.69299909	      1.20362593	    -10.50552519	      9.12004239	      9.12004239	      5.14638645	      0.00000000	      0.00000000	    -19.39581163	     -2.00091087	      1.24917187
      0.32500000	      6.83975517	     -0.05559630	     -1.21100491	      0.32820721	      1.02244830	      0.15383192	     14.13819578	     -4.66992103	     -5.02914161	     50.69674881	     50.69674881	      2.89063289	      0.00000000	      0.00000000	     -4.28620194	      1.16164282	    -10.11898257	      8.90231521	      8.90231521	      5.26540271	      0.00000000	      0.00000000	    -19.46707408	     -1.85896395	      1.09034030
      0.33333333	      6.76034489	     -0.03481590	     -0.84919077	      0.33599160	      1.02241230	      0.15327189	     14.71227390	     -4.50468199	     -5.16870698	     48.81763241	     48.81763241	      3.05695689	      0.00000000	      0.00000000	     -4.74136806	      1.18675517	     -9.79571665	      8.81107183	      8.81107183	      5.51104589	      0.00000000	      0.00000000	    -19.49731773	     -1.75685720	      0.90598848
